<svg width="62" height="61" viewBox="0 0 62 61" fill="none" xmlns="http://www.w3.org/2000/svg">
<g clip-path="url(#clip0_13530_244)">
<path d="M29.8523 21.5372C31.9629 21.3364 34.0178 21.7322 35.748 23.0084C37.078 23.9895 38.2897 25.4022 38.8058 27.0087C38.9296 27.3943 38.9755 27.8468 39.0367 28.2491C39.4116 30.7172 39.0439 32.9172 37.5404 34.9526C36.7005 36.09 35.2269 37.1982 33.9034 37.675C33.2313 37.917 32.5674 38.0167 31.8651 38.1187L31.7753 38.1335C29.6655 38.367 27.5425 37.8124 25.8581 36.5183C24.2198 35.2596 22.9706 33.2975 22.7058 31.2249C22.3798 28.6735 22.9123 26.45 24.4921 24.4214C25.7934 22.7505 27.799 21.8047 29.8523 21.5372Z" fill="#FEFE00"/>
<path d="M30.5189 22.8535C32.0648 22.7022 33.8393 23.2658 35.0687 24.2061C36.5364 25.3287 37.5443 26.9908 37.7895 28.8374C38.0542 30.8325 37.5149 32.6812 36.3045 34.2724C35.0964 35.8606 33.2959 36.5739 31.3915 36.831C29.4998 36.9196 27.7905 36.3673 26.3288 35.1503C25.0422 34.0792 24.1123 32.2611 23.9631 30.5925C23.7893 28.649 24.3887 26.7424 25.6297 25.2437C26.881 23.7326 28.6242 23.0218 30.5189 22.8535Z" fill="#FEC100"/>
<path d="M20.0608 0.775163C20.4057 0.7174 20.7737 0.745356 21.1196 0.784234C21.4621 0.822743 21.7987 0.955423 22.1319 1.04287C25.6454 1.96522 27.9422 4.92122 30.0928 7.66555C29.697 9.06715 28.7185 10.4414 28.0316 11.7213C27.0281 13.5911 26.146 15.5246 25.1686 17.4078C24.6897 18.3308 24.0822 19.196 23.6374 20.1286C22.9139 19.7884 22.2798 19.3652 21.6251 18.9075C20.8565 18.2209 19.7053 17.6784 18.8268 17.1218C17.3133 16.1631 15.791 15.2191 14.2782 14.2593C13.0279 13.4661 11.7786 12.5626 10.4099 11.9977C10.6563 11.3129 11.1132 10.7415 11.5056 10.1377C12.122 9.18952 12.7392 8.24342 13.3659 7.30219C14.6575 5.36246 15.8969 3.38163 17.2578 1.49065C18.1877 1.15278 19.1518 1.10038 20.0608 0.775163Z" fill="white"/>
<path d="M55.2092 19.7788L55.5769 19.8165C55.9185 20.7105 56.4578 21.5309 56.8831 22.3894C57.8871 24.4166 58.8719 26.453 59.8853 28.4756C60.3819 29.4667 60.8912 30.4268 61.3002 31.461C61.4813 31.9195 61.6838 32.3472 61.6826 32.85C61.6786 34.6637 60.4164 36.0171 59.2079 37.2079C58.1736 38.2268 56.8153 39.2982 55.3896 39.6813C54.8377 39.8295 54.0815 39.7741 53.51 39.7833C51.8791 39.8102 50.247 39.7859 48.6161 39.7738L48.4126 39.6937L42.2284 27.9989C42.1868 27.8946 42.1177 27.7741 42.1659 27.6678C42.2186 27.5515 42.2925 27.4755 42.3965 27.4041C42.8361 27.1022 43.3372 26.8868 43.7945 26.612C44.3904 26.2537 44.9453 25.8305 45.5393 25.4704C46.1053 25.1273 46.7081 24.8483 47.2728 24.504C49.582 23.0964 51.8378 21.5585 54.1948 20.2319C54.515 20.0517 54.8689 19.9156 55.2092 19.7788Z" fill="white"/>
<path d="M1.31937 19.8208L14.9297 19.814C15.1946 20.6473 15.7175 21.3218 16.1246 22.0806C17.6482 24.9209 19.1758 27.7533 20.6515 30.619C20.8765 31.056 21.5562 32.0156 21.5574 32.4526L21.3834 32.6125C20.8259 32.7045 17.8518 30.756 17.0836 30.429L14.3375 36.2991L12.6354 40.1195C11.4149 40.0466 10.1709 40.0942 8.94712 40.0906C8.38642 40.0889 7.74666 40.1332 7.196 40.0191C6.24225 39.8213 5.20553 39.312 4.38788 38.7863C3.86192 38.4482 3.41127 37.9805 2.96454 37.5453C1.81353 36.4248 0.40539 34.9555 0.0647994 33.3122C0.0158372 33.0755 0.0172466 32.8465 0.0955004 32.6167C0.508952 31.402 1.27298 30.1976 1.82511 29.0374C2.7913 27.0069 3.59327 24.7696 4.83405 22.887L0.601668 20.3754L0.573051 20.3618L0.534812 20.1966C0.803461 19.8451 0.901692 19.8857 1.31937 19.8208Z" fill="white"/>
<path d="M0.778625 37.209C0.881759 37.2247 1.06174 37.2267 1.15225 37.2664C1.30115 37.3317 1.53261 37.5865 1.66093 37.7C1.96475 37.9685 2.28567 38.2109 2.61413 38.4477C3.25076 38.9068 4.00051 39.3252 4.69377 39.688C5.26826 39.9887 6.27422 40.2645 6.91294 40.3993C7.61422 40.5472 8.43144 40.475 9.14933 40.4747C10.523 40.4734 11.8961 40.4603 13.2693 40.4574C18.1025 40.4465 22.9358 40.4675 27.7689 40.4544L27.7591 56.1052C27.4503 56.195 27.0804 56.1655 26.7592 56.1685C24.3568 56.1927 21.9526 56.179 19.55 56.1777C18.3774 56.177 17.0364 56.302 15.8818 56.1429C15.216 56.0511 14.5356 55.7477 13.9338 55.4549C13.0344 55.0177 12.1988 54.5199 11.4268 53.8804C10.5111 53.1218 9.6813 52.1751 8.8335 51.3364C7.97503 50.4874 7.36524 49.5599 6.69772 48.563C6.05405 47.6014 5.38248 46.6665 4.81632 45.6544C3.78328 43.8073 2.95551 41.8416 2.00709 39.9556C1.80322 39.5502 1.62404 39.114 1.41477 38.7186C1.1623 38.2411 0.783467 37.7744 0.778625 37.209Z" fill="white"/>
<path d="M27.0739 0.724846L41.3925 0.714355C44.535 0.869561 46.4583 3.59976 47.9004 6.12094C48.5018 7.17275 48.9649 8.21266 49.7849 9.12223C50.4844 8.72092 51.1555 8.27869 51.8475 7.8651C52.1836 7.6641 52.5474 7.39732 52.931 7.30969L53.044 7.4462C53.0772 8.30381 47.7759 17.3913 46.9064 18.9288C46.7195 19.3022 46.5404 19.6502 46.2766 19.9749C45.9233 20.1269 45.468 20.0912 45.0893 20.0929C44.3374 20.0962 43.5851 20.097 42.8332 20.0971C40.3735 20.0974 37.8927 20.1599 35.4356 20.0589C34.4876 20.0199 33.5583 19.8985 32.6148 19.8214C32.3495 19.7997 32.0909 19.8541 31.8274 19.8056C31.6397 19.7711 31.6223 19.7782 31.5157 19.6214C31.8455 18.9457 33.0232 18.5448 33.6621 18.1751C34.3248 17.7916 34.8866 17.3874 35.5904 17.0604C35.2321 16.5046 35.0523 15.8827 34.7905 15.281C34.4284 14.4488 34.0227 13.6295 33.6175 12.8179C32.8324 11.244 31.9077 9.78027 30.9553 8.30708C30.2972 7.28896 29.6289 6.23017 28.8569 5.29486C28.381 4.71823 27.8141 4.21429 27.3028 3.6698C26.2849 2.58608 25.3609 1.6401 24.1118 0.808713L27.0739 0.724846Z" fill="white"/>
<path d="M39.121 36.2349L39.3197 36.306L39.459 40.4674C39.7036 40.3516 39.9615 40.2184 40.2305 40.1781C41.256 40.0247 42.4456 40.1348 43.4854 40.1328C46.4935 40.1273 49.5472 40.0725 52.534 40.4362C52.9727 40.4897 53.5578 40.5464 53.9894 40.4297C54.1499 40.3863 54.2798 40.263 54.4446 40.2342C54.7986 40.1725 55.1669 40.2099 55.519 40.1286C55.77 40.0709 55.9937 39.9056 56.2282 39.8029C56.6861 39.6029 57.1603 39.4645 57.6096 39.2383C58.2359 38.9227 58.8679 38.4554 59.4229 38.0261C59.6397 37.8585 59.7755 37.7165 60.0546 37.7542C60.1937 38.1439 59.644 38.9303 59.4788 39.3337C59.3727 39.5927 59.3212 39.8735 59.2359 40.1401C58.9376 41.0721 58.3882 41.9766 57.9916 42.8749C56.3597 46.5696 54.8009 49.9609 51.8022 52.7612C51.2024 53.3214 50.5352 53.9511 49.8018 54.3243C46.7266 56.2329 42.8797 55.866 39.433 55.8433C39.5375 56.4796 39.4659 57.1706 39.446 57.814C39.4144 58.847 39.4109 59.8827 39.2444 60.9049C39.1181 60.6632 38.997 60.3884 38.8345 60.1703C38.6479 59.9195 38.4205 59.7525 38.2597 59.4682C36.6227 56.5773 34.966 53.6988 33.3831 50.7768C32.9881 50.0481 32.4311 49.3253 32.1265 48.5632C32.2822 47.7587 32.9832 46.9414 33.3791 46.2118C34.5563 44.041 35.7606 41.8959 36.9737 39.7456C37.2766 39.209 37.6055 38.6767 37.8933 38.134C38.2271 37.5046 38.5879 36.7113 39.121 36.2349Z" fill="white"/>
</g>
<defs>
<clipPath id="clip0_13530_244">
<rect width="61.7143" height="60.1905" fill="white" transform="translate(0 0.714355)"/>
</clipPath>
</defs>
</svg>
