<svg width="43" height="42" viewBox="0 0 43 42" fill="none" xmlns="http://www.w3.org/2000/svg">
<path d="M16.7175 30.3666L9.33386 30.3534L12.5096 24.8527L14.2115 25.8349C14.3895 25.9376 14.5948 25.983 14.7995 25.9649C15.0042 25.9468 15.1983 25.8661 15.3555 25.7337C15.5127 25.6014 15.6253 25.4238 15.678 25.2252C15.7307 25.0265 15.7209 24.8165 15.65 24.6236L12.9862 17.3813C12.9055 17.1617 12.7503 16.9774 12.5477 16.8604C12.3452 16.7435 12.108 16.7013 11.8775 16.7411L4.27361 18.0553C4.07114 18.0903 3.88437 18.1869 3.7387 18.3318C3.59304 18.4767 3.49555 18.663 3.4595 18.8653C3.42345 19.0676 3.45059 19.276 3.53723 19.4624C3.62386 19.6487 3.76579 19.8038 3.9437 19.9066L5.64386 20.8886L1.60417 27.8863C0.996618 28.9387 0.67653 30.1323 0.676026 31.3474C0.675522 32.5625 0.994619 33.7564 1.6013 34.8093C2.20797 35.8621 3.08089 36.7369 4.13245 37.3458C5.18401 37.9547 6.37723 38.2763 7.59236 38.2784L16.711 38.2944H16.7146C17.2448 38.2942 17.7532 38.0834 18.128 37.7084C18.5029 37.3334 18.7135 36.8249 18.7135 36.2948V32.3666C18.7128 31.8371 18.5024 31.3294 18.1284 30.9546C17.7543 30.5798 17.247 30.3683 16.7175 30.3666ZM41.7226 27.9245L37.1587 20.05C36.8924 19.5922 36.4557 19.2585 35.944 19.1219C35.4323 18.9853 34.8873 19.0568 34.4283 19.3209L31.0266 21.2851C30.7989 21.4166 30.5994 21.5916 30.4394 21.8003C30.2794 22.0089 30.1622 22.2471 30.0943 22.5011C30.0265 22.7551 30.0094 23.02 30.044 23.2806C30.0787 23.5413 30.1643 23.7925 30.2962 24.02L33.9916 30.3958L27.6063 30.3848V28.4348C27.6063 28.2292 27.543 28.0287 27.425 27.8604C27.307 27.6922 27.14 27.5644 26.9467 27.4944C26.7535 27.4245 26.5434 27.4157 26.345 27.4695C26.1466 27.5232 25.9696 27.6367 25.8381 27.7946L20.8979 33.7227C20.7482 33.9024 20.6662 34.129 20.6662 34.3629C20.6662 34.5968 20.7482 34.8233 20.8979 35.0031L25.8381 40.9313C25.9697 41.0891 26.1467 41.2025 26.345 41.2562C26.5434 41.3099 26.7534 41.3011 26.9466 41.2312C27.1398 41.1612 27.3068 41.0334 27.4248 40.8652C27.5428 40.697 27.6062 40.4965 27.6062 40.291V38.3129L35.717 38.327H35.7306C36.9478 38.3343 38.145 38.0173 39.1991 37.4086C40.2532 36.7999 41.1262 35.9214 41.7282 34.8635C42.3438 33.8106 42.6677 32.6128 42.6667 31.3932C42.6658 30.1736 42.3399 28.9763 41.7227 27.9244L41.7226 27.9245ZM11.8224 14.1881L15.2249 16.1516C15.6844 16.416 16.23 16.4874 16.7421 16.3501C17.2542 16.2129 17.6909 15.8781 17.9565 15.4193L21.6263 9.0631L24.8317 14.5943L23.1609 15.5582C22.983 15.661 22.841 15.816 22.7544 16.0024C22.6677 16.1887 22.6405 16.3972 22.6765 16.5995C22.7126 16.8018 22.81 16.9881 22.9557 17.133C23.1013 17.278 23.2881 17.3745 23.4906 17.4096L31.0945 18.7237C31.3251 18.7636 31.5623 18.7215 31.7649 18.6045C31.9676 18.4875 32.1227 18.3031 32.2033 18.0834L34.8667 10.8415C34.9376 10.6487 34.9475 10.4386 34.8948 10.2399C34.8421 10.0413 34.7295 9.86366 34.5723 9.73129C34.415 9.59893 34.2208 9.51822 34.0161 9.50016C33.8114 9.48211 33.606 9.52757 33.4281 9.63038L31.6979 10.6298L27.6186 3.59241C27.0148 2.53689 26.1413 1.66078 25.0877 1.05377C24.034 0.446755 22.8379 0.130651 21.622 0.137814H21.6187C20.4021 0.131741 19.2059 0.449359 18.1526 1.05809C17.0993 1.66683 16.2269 2.54477 15.6249 3.60188L11.09 11.456C10.9587 11.6835 10.8734 11.9346 10.8392 12.195C10.8049 12.4555 10.8223 12.7201 10.8903 12.9738C10.9583 13.2275 11.0757 13.4653 11.2356 13.6737C11.3955 13.8821 11.5949 14.0569 11.8225 14.1882L11.8224 14.1881Z" fill="#2ECC71"/>
<path d="M16.7175 30.3668L9.33385 30.3537L6.99629 34.4022C5.96907 36.1814 5.55254 38.2239 8.84982 38.2808L16.7105 38.2946H16.7141C17.2444 38.2944 17.7529 38.0837 18.1278 37.7087C18.5028 37.3338 18.7134 36.8253 18.7135 36.295V32.3669C18.7128 31.8373 18.5024 31.3296 18.1284 30.9548C17.7543 30.58 17.247 30.3686 16.7175 30.3668ZM41.0213 26.7147L37.1588 20.0503C36.8925 19.5925 36.4557 19.2588 35.9441 19.1221C35.4324 18.9855 34.8874 19.0571 34.4284 19.3212L31.0267 21.2853C30.799 21.4168 30.5994 21.5919 30.4395 21.8005C30.2795 22.0092 30.1623 22.2473 30.0944 22.5013C30.0266 22.7553 30.0095 23.0202 30.0441 23.2809C30.0788 23.5415 30.1644 23.7927 30.2963 24.0202L33.9917 30.3961H38.6668C40.7532 30.3961 42.7604 29.7147 41.0213 26.7147ZM14.9579 4.75702L11.09 11.4561C10.9587 11.6836 10.8734 11.9347 10.8392 12.1952C10.8049 12.4556 10.8223 12.7202 10.8903 12.9739C10.9583 13.2277 11.0757 13.4655 11.2356 13.6739C11.3955 13.8822 11.5949 14.0571 11.8224 14.1884L15.225 16.1519C15.6845 16.4163 16.2301 16.4877 16.7422 16.3504C17.2542 16.2131 17.691 15.8784 17.9566 15.4196L21.6264 9.06333L19.2887 5.01455C18.2525 3.21961 16.6733 1.82986 14.9579 4.75702Z" fill="#105E30" fill-opacity="0.145098"/>
</svg>
