<svg width="45" height="41" viewBox="0 0 45 41" fill="none" xmlns="http://www.w3.org/2000/svg">
<path d="M11.4893 9.28145C11.4893 9.28145 11.1711 12.4634 6.9892 17.6001C6.9892 17.6001 3.85254 20.373 3.48901 24.8284C3.48901 24.8284 5.43485 23.2613 7.48911 22.904C7.48911 22.904 3.82515 29.3913 6.20779 35.7108C6.20779 35.7108 6.86299 33.7452 8.23311 32.732C8.23311 32.732 6.80341 37.867 11.8666 40.6543C11.8303 39.94 12.0643 39.2382 12.5219 38.6886C12.5219 38.6886 14.3684 36.1869 14.3684 32.9107C14.3684 32.9107 15.6012 34.8166 15.5805 36.4846C15.5805 36.4846 17.7636 34.1615 17.3468 29.575C17.3468 29.575 19.0742 35.8239 24.8521 38.927C24.8521 38.927 25.6861 36.3656 24.8521 32.6728C24.8521 32.6728 26.4604 38.7486 36.6463 37.736C36.6463 37.736 39.5055 37.4977 41.4117 38.0934C41.4117 38.0934 40.6968 31.3029 34.7401 26.8353C34.7401 26.8353 36.7059 26.1206 38.3737 26.4183C38.3737 26.4183 37.3611 19.9852 30.3323 16.7686C31.3417 16.6906 32.3308 16.4433 33.2582 16.037C34.2227 15.615 35.2579 15.3781 36.3099 15.3386C36.8618 15.3185 37.4142 15.3584 37.9575 15.4576C37.9575 15.4576 37.4809 13.1346 35.4557 12.4788C35.4557 12.4788 37.3616 13.134 39.685 12.1214C39.685 12.1214 41.7697 11.1087 43.378 11.1087C43.378 11.1087 42.0676 6.16469 35.1579 6.76046C35.1579 6.76046 37.1832 5.98611 38.1957 4.08008C38.1957 4.08008 35.6939 2.05476 28.3673 3.84178C26.2709 4.35298 24.6624 4.59128 23.4339 4.67076C23.4339 4.67076 24.7246 3.79801 25.2692 2.59081C25.2692 2.59081 22.9493 2.19693 19.3602 4.29806C18.1196 5.02318 16.8115 5.62597 15.4543 6.09792C13.9506 6.62253 12.0603 7.59707 11.4893 9.28145Z" fill="#F29251"/>
<path d="M16.497 12.334C18.703 11.6057 21.5326 11.2311 22.9249 11.0799C23.1888 11.051 23.4414 10.9573 23.6604 10.8072C23.8793 10.6571 24.0578 10.4552 24.1799 10.2195L24.329 9.93189C21.285 9.76135 18.9746 9.97142 17.3936 10.2364C16.731 10.3489 16.0502 10.2746 15.4274 10.0219C14.8047 9.7692 14.2646 9.34808 13.8677 8.80573C12.0465 6.31114 10.1461 3.59631 8.30138 0.774902C7.99963 1.57769 7.76148 2.40296 7.58914 3.24309C7.58914 3.24309 9.85601 6.68907 12.9962 10.9491C13.3073 11.371 13.5227 11.8558 13.6272 12.3695C13.7318 12.8833 13.7231 13.4136 13.6017 13.9237C13.1797 15.6967 12.65 18.1958 12.4441 20.319L13.2276 20.0729C13.5146 19.9831 13.7707 19.8147 13.967 19.5869C14.1632 19.359 14.2918 19.0808 14.3381 18.7837C14.5171 17.6298 14.8754 15.6841 15.4377 14.1821C18.3252 17.912 21.5789 21.7591 24.4047 24.2256L24.4503 23.2938C24.4822 22.6428 24.2651 22.0041 23.8432 21.5074C22.6277 20.0751 19.8417 16.7333 16.497 12.334ZM1.96566 8.70309C1.96566 8.70309 -0.667705 11.612 0.955118 13.6942C2.57794 15.7765 3.03733 16.642 3.03733 16.642C3.03733 16.642 5.97691 11.6427 1.96566 8.70309ZM38.6965 18.3344C38.6965 18.3344 38.3348 20.7116 42.3663 21.9004C42.3663 21.9004 43.6582 22.211 44.2266 22.6238C44.2258 22.6235 44.7945 17.7402 38.6965 18.3344Z" fill="#CC4729"/>
<path d="M36.6463 37.7354C36.6463 37.7354 39.5055 37.4971 41.4117 38.0929C41.4117 38.0929 40.9948 34.1368 38.1491 30.2774C17.7717 32.0894 10.5687 21.7613 8.16746 16.0674C7.78914 16.5892 7.39623 17.1003 6.9892 17.6C6.9892 17.6 3.85254 20.3728 3.48901 24.8282C3.48901 24.8282 5.43485 23.2612 7.48911 22.9039C7.48911 22.9039 3.82515 29.3912 6.20779 35.7107C6.20779 35.7107 6.86299 33.7451 8.23311 32.7319C8.23311 32.7319 6.80341 37.8669 11.8666 40.6541C11.8303 39.9399 12.0643 39.2381 12.5219 38.6885C12.5219 38.6885 14.3684 36.1867 14.3684 32.9106C14.3684 32.9106 15.6012 34.8165 15.5805 36.4845C15.5805 36.4845 17.7636 34.1614 17.3468 29.5749C17.3468 29.5749 19.0742 35.8238 24.8521 38.9268C24.8521 38.9268 25.6861 36.3653 24.8521 32.6727C24.8521 32.6721 26.4604 38.7481 36.6463 37.7354Z" fill="#EA7649"/>
</svg>
