<svg width="48" height="49" viewBox="0 0 48 49" fill="none" xmlns="http://www.w3.org/2000/svg">
<path d="M21.5713 9.5462C21.4576 9.54637 21.3455 9.51973 21.2441 9.46846C21.1426 9.41718 21.0546 9.3427 20.9874 9.25107C20.3287 8.35614 19.1566 7.32948 17.3123 7.52645C15.1409 7.75773 13.5284 7.0667 12.5579 6.44635C12.3984 6.34185 12.2866 6.17867 12.2467 5.99223C12.2067 5.80578 12.2419 5.61111 12.3446 5.45045C12.4473 5.28979 12.6092 5.1761 12.7952 5.13405C12.9811 5.092 13.1762 5.12497 13.338 5.22582C14.1132 5.7212 15.4054 6.2731 17.1589 6.08598C19.8203 5.80342 21.4308 7.40954 22.1541 8.39251C22.2335 8.50036 22.2814 8.6281 22.2925 8.76155C22.3037 8.89499 22.2776 9.02892 22.2173 9.14845C22.1569 9.26798 22.0646 9.36843 21.9505 9.43865C21.8365 9.50886 21.7052 9.54609 21.5713 9.5462Z" fill="#FFD064"/>
<path d="M13.9882 13.3923C13.8546 13.3924 13.7236 13.3553 13.6099 13.2851C13.5288 13.2354 13.4584 13.1702 13.4025 13.0932C13.3467 13.0162 13.3065 12.9289 13.2844 12.8364C13.2623 12.7439 13.2586 12.6479 13.2735 12.554C13.2885 12.4601 13.3218 12.37 13.3716 12.289C14.3 10.7765 16.0014 9.73699 18.2919 9.28287C19.9619 8.95183 21.3632 9.04249 21.4219 9.04662C21.5168 9.05312 21.6095 9.07824 21.6947 9.12057C21.7798 9.16289 21.8558 9.22157 21.9183 9.29327C21.9808 9.36497 22.0286 9.44828 22.0589 9.53844C22.0892 9.6286 22.1014 9.72385 22.0949 9.81874C22.0676 10.2176 21.7211 10.5166 21.3237 10.4919C21.2734 10.4885 16.3553 10.1969 14.6061 13.0467C14.5413 13.1524 14.4505 13.2397 14.3423 13.3002C14.2341 13.3607 14.1121 13.3924 13.9882 13.3923Z" fill="#FFD064"/>
<path d="M24.9058 41.1466C36.8009 41.1466 43.3782 23.6988 24.594 10.2229C24.1268 9.8876 23.8493 9.34789 23.8556 8.77282C23.8614 8.2978 24.0107 7.83563 24.2838 7.44692C25.1632 6.19114 26.429 4.04295 27.1881 2.3127C27.3699 1.89832 27.1097 1.45264 26.6234 1.45264C25.4952 1.45273 25.4951 0.714355 24.3669 0.714355C23.2386 0.714355 23.2386 1.45273 22.1102 1.45273C21.1487 1.45273 20.7542 0.62548 20.2868 1.22717C18.9235 2.98179 23.593 9.15214 23.593 9.15214C2.9704 22.7093 9.61981 41.1467 21.7957 41.1467H24.9058V41.1466Z" fill="#EABC6B"/>
<path d="M29.5819 9.15204C29.5819 9.15204 34.3207 3.00167 32.958 1.23739C32.4936 0.636074 32.0976 1.45273 31.1371 1.45273C30.0086 1.45264 30.0086 0.714355 28.8802 0.714355C27.7518 0.714355 27.7518 1.45264 26.6234 1.45264C26.5678 1.45264 26.5171 1.44954 26.4668 1.44607C26.0134 3.38951 23.9703 6.41717 22.8011 8.03829C23.2615 8.71395 23.593 9.15195 23.593 9.15195C23.3212 9.33088 23.0513 9.51264 22.7833 9.6972C42.4869 23.2402 35.894 41.1465 23.8436 41.1465H31.4522C43.6649 41.1466 50.2732 22.7543 29.5819 9.15204Z" fill="#E8AE4D"/>
<path d="M30.463 11.3398C27.7095 12.0352 24.9892 12.0352 22.2352 11.3398C21.2767 11.0977 20.7333 10.0199 21.0782 9.04009L21.0897 9.00718C21.379 8.18575 22.1992 7.72478 23.0031 7.92662C25.2578 8.49268 27.4397 8.49287 29.695 7.92662C30.499 7.72478 31.3192 8.18575 31.6084 9.00718L31.6199 9.04009C31.9649 10.0199 31.4215 11.0977 30.463 11.3398Z" fill="#FFE07D"/>
<path d="M4.57288 44.3097L15.0594 48.2128C15.95 48.5444 16.8927 48.7141 17.843 48.7141H28.6501C30.1625 48.7141 31.6438 48.2844 32.9213 47.4748L46.4529 38.9005C47.3457 38.1077 47.5111 36.7755 46.8395 35.7884C46.1046 34.7084 44.8889 34.5208 43.5512 35.1533L30.3769 40.954L30.3925 38.8166C30.218 37.0621 28.8672 35.6541 27.1215 35.4072L19.0988 34.4834C17.2481 34.2216 16.3233 33.6013 14.7099 32.6576C12.5072 31.3691 10.0013 30.6899 7.44941 30.6899H4.57288V44.3097Z" fill="#FFDDCE"/>
<path d="M14.4225 46.1331C15.3588 46.4816 16.3498 46.66 17.3488 46.6601H28.71C29.9151 46.6599 31.106 46.4 32.2016 45.8982L40.1458 40.8642C40.8839 40.3964 41.3525 39.5823 41.3285 38.7088C41.3155 38.2318 41.1657 37.7686 40.8968 37.3743C40.8968 37.3743 40.6549 36.9598 40.4064 36.538L30.3769 40.954L30.3925 38.8166C30.218 37.0621 28.8672 35.6541 27.1215 35.4072L19.0988 34.4834C17.2481 34.2216 16.3233 33.6013 14.7099 32.6576C12.5072 31.3691 10.0013 30.6899 7.44941 30.6899H4.57288V42.4669L14.4225 46.1331Z" fill="#FFDDCE"/>
<path d="M46.8394 35.7885C46.1045 34.7085 44.8888 34.5208 43.5511 35.1533L39.9274 36.7488C40.1029 37.0266 40.2425 37.2483 40.2425 37.2483C40.9141 38.2354 40.7487 39.5676 39.8559 40.3604L31.9712 45.3565C30.929 45.8339 29.7962 46.0811 28.6499 46.0813H17.843C16.8927 46.0813 15.95 45.9115 15.0594 45.58L4.57288 41.6767V44.3096L15.0594 48.2129C15.95 48.5444 16.8927 48.7141 17.843 48.7142H28.6502C30.1626 48.7142 31.6439 48.2844 32.9214 47.4749L46.453 38.9005C47.3456 38.1078 47.5111 36.7755 46.8394 35.7885Z" fill="#FFCBBE"/>
<path d="M29.4088 36.6147L29.4084 36.6663L29.4425 36.6513C29.4314 36.6389 29.42 36.627 29.4088 36.6147Z" fill="#F5DBCC"/>
<path d="M30.3768 40.953H22.185C21.785 40.953 21.4607 40.6288 21.4607 40.2287C21.4607 39.8286 21.7849 39.5044 22.185 39.5044H30.3874L30.3768 40.953Z" fill="#FFCBBE"/>
<path d="M6.82933 46.3985C6.82933 47.1594 6.21255 47.7762 5.45168 47.7762H2.12674C1.36587 47.7762 0.749084 47.1594 0.749084 46.3985V29.5295C0.749084 28.7686 1.36587 28.1519 2.12674 28.1519H5.45168C6.21255 28.1519 6.82933 28.7686 6.82933 29.5295V46.3985Z" fill="#407093"/>
<path d="M28.1828 23.1606C27.8751 23.0522 27.5689 22.9397 27.2642 22.8229V18.2048C28.1209 18.3469 28.6352 18.79 28.6729 18.8235C28.8144 18.9521 29.0009 19.0196 29.1919 19.0111C29.3829 19.0027 29.5629 18.9191 29.6925 18.7786C29.7569 18.7087 29.807 18.6267 29.8399 18.5375C29.8727 18.4482 29.8876 18.3533 29.8838 18.2583C29.8799 18.1632 29.8574 18.0699 29.8175 17.9835C29.7776 17.8972 29.721 17.8196 29.6511 17.7551C29.6002 17.7079 28.7131 16.9088 27.2641 16.7419V15.7121C27.2641 15.3121 26.94 14.9878 26.5398 14.9878C26.1397 14.9878 25.8155 15.312 25.8155 15.7121V16.8006C25.6342 16.8351 25.4549 16.879 25.2781 16.932C24.0495 17.302 23.1311 18.3556 22.8812 19.6813C22.6545 20.8843 23.0359 22.0413 23.8767 22.7007C24.3593 23.0793 24.967 23.4259 25.8155 23.7964V29.5247C24.9773 29.4895 24.4625 29.3316 23.5628 28.7432C23.4832 28.6911 23.3941 28.6552 23.3007 28.6376C23.2072 28.6199 23.1112 28.6209 23.0181 28.6403C22.925 28.6598 22.8367 28.6974 22.7581 28.751C22.6795 28.8046 22.6123 28.8732 22.5602 28.9528C22.5082 29.0324 22.4723 29.1215 22.4546 29.2149C22.437 29.3084 22.4379 29.4044 22.4574 29.4975C22.4769 29.5906 22.5145 29.6789 22.5681 29.7575C22.6217 29.8361 22.6903 29.9033 22.7699 29.9554C23.9522 30.7289 24.7426 30.9306 25.8155 30.9724V32.1221C25.8155 32.5221 26.1397 32.8464 26.5398 32.8464C26.94 32.8464 27.2641 32.5222 27.2641 32.1221V30.9215C29.2974 30.5915 30.4839 28.9458 30.7419 27.4105C31.0646 25.4923 30.0599 23.8242 28.1828 23.1606ZM24.7707 21.5608C24.3571 21.2365 24.1787 20.6191 24.3049 19.9495C24.4218 19.3286 24.8488 18.5742 25.6961 18.319C25.7364 18.3068 25.776 18.2963 25.8157 18.2857V22.1982C25.3819 21.9817 25.0418 21.7734 24.7707 21.5608ZM29.3135 27.1701C29.1537 28.1207 28.456 29.1354 27.2642 29.4409V24.3695C27.4051 24.4211 27.5491 24.4731 27.6999 24.5264C29.5024 25.1635 29.3907 26.711 29.3135 27.1701Z" fill="white"/>
</svg>
