<svg width="195" height="195" viewBox="0 0 195 195" fill="none" xmlns="http://www.w3.org/2000/svg">
<path d="M164.64 2.86094L164.64 20.1409L161.28 20.1409L161.28 2.86094L164.64 2.86094ZM171.6 13.1809L154.32 13.1809L154.32 9.82094L171.6 9.82094L171.6 13.1809Z" fill="#071431" fill-opacity="0.16"/>
<path d="M164.64 45.8609L164.64 63.1409L161.28 63.1409L161.28 45.8609L164.64 45.8609ZM171.6 56.1809L154.32 56.1809L154.32 52.8209L171.6 52.8209L171.6 56.1809Z" fill="#071431" fill-opacity="0.16"/>
<path d="M164.64 88.8609L164.64 106.141L161.28 106.141L161.28 88.8609L164.64 88.8609ZM171.6 99.1809L154.32 99.1809L154.32 95.8209L171.6 95.8209L171.6 99.1809Z" fill="#071431" fill-opacity="0.16"/>
<path d="M164.64 131.861L164.64 149.141L161.28 149.141L161.28 131.861L164.64 131.861ZM171.6 142.181L154.32 142.181L154.32 138.821L171.6 138.821L171.6 142.181Z" fill="#071431" fill-opacity="0.16"/>
<path d="M164.64 174.861L164.64 192.141L161.28 192.141L161.28 174.861L164.64 174.861ZM171.6 185.181L154.32 185.181L154.32 181.821L171.6 181.821L171.6 185.181Z" fill="#071431" fill-opacity="0.16"/>
<path d="M106.64 2.86094L106.64 20.1409L103.28 20.1409L103.28 2.86094L106.64 2.86094ZM113.6 13.1809L96.32 13.1809L96.32 9.82094L113.6 9.82094L113.6 13.1809Z" fill="#071431" fill-opacity="0.16"/>
<path d="M106.64 45.8609L106.64 63.1409L103.28 63.1409L103.28 45.8609L106.64 45.8609ZM113.6 56.1809L96.32 56.1809L96.32 52.8209L113.6 52.8209L113.6 56.1809Z" fill="#071431" fill-opacity="0.16"/>
<path d="M106.64 88.8609L106.64 106.141L103.28 106.141L103.28 88.8609L106.64 88.8609ZM113.6 99.1809L96.32 99.1809L96.32 95.8209L113.6 95.8209L113.6 99.1809Z" fill="#071431" fill-opacity="0.16"/>
<path d="M106.64 131.861L106.64 149.141L103.28 149.141L103.28 131.861L106.64 131.861ZM113.6 142.181L96.32 142.181L96.32 138.821L113.6 138.821L113.6 142.181Z" fill="#071431" fill-opacity="0.16"/>
<path d="M106.64 174.861L106.64 192.141L103.28 192.141L103.28 174.861L106.64 174.861ZM113.6 185.181L96.32 185.181L96.32 181.821L113.6 181.821L113.6 185.181Z" fill="#071431" fill-opacity="0.16"/>
<path d="M48.64 2.86094L48.64 20.1409L45.28 20.1409L45.28 2.86094L48.64 2.86094ZM55.6 13.1809L38.32 13.1809L38.32 9.82094L55.6 9.82094L55.6 13.1809Z" fill="#071431" fill-opacity="0.16"/>
<path d="M48.64 45.8609L48.64 63.1409L45.28 63.1409L45.28 45.8609L48.64 45.8609ZM55.6 56.1809L38.32 56.1809L38.32 52.8209L55.6 52.8209L55.6 56.1809Z" fill="#071431" fill-opacity="0.16"/>
<path d="M48.64 88.8609L48.64 106.141L45.28 106.141L45.28 88.8609L48.64 88.8609ZM55.6 99.1809L38.32 99.1809L38.32 95.8209L55.6 95.8209L55.6 99.1809Z" fill="#071431" fill-opacity="0.16"/>
<path d="M48.64 131.861L48.64 149.141L45.28 149.141L45.28 131.861L48.64 131.861ZM55.6 142.181L38.32 142.181L38.32 138.821L55.6 138.821L55.6 142.181Z" fill="#071431" fill-opacity="0.16"/>
<path d="M48.64 174.861L48.64 192.141L45.28 192.141L45.28 174.861L48.64 174.861ZM55.6 185.181L38.32 185.181L38.32 181.821L55.6 181.821L55.6 185.181Z" fill="#071431" fill-opacity="0.16"/>
</svg>
