<svg width="49" height="49" viewBox="0 0 49 49" fill="none" xmlns="http://www.w3.org/2000/svg">
<g clip-path="url(#clip0_13522_510)">
<path d="M15.122 18.2521H18.7083C20.048 15.7944 22.3375 13.9308 25.0855 13.1561C24.5327 11.8138 23.2125 10.8689 21.6713 10.8689C21.2859 10.8689 20.9148 10.9283 20.5659 11.0375C20.5678 10.9814 20.5703 10.9255 20.5703 10.8689C20.5703 8.1273 18.3471 5.9043 15.6053 5.9043C13.2406 5.9043 11.2638 7.5573 10.7638 9.77045C10.4595 9.66887 10.1407 9.61714 9.81985 9.61727C8.80417 9.61727 7.90754 10.1258 7.36989 10.9019C7.06307 10.8227 6.74747 10.7827 6.4306 10.7827C4.3681 10.7827 2.69617 12.4547 2.69617 14.5173C2.69617 16.5795 4.3682 18.2519 6.4306 18.2519H12.4013" fill="#9FDEF7"/>
<path d="M35.5191 15.9917C33.6003 13.9392 30.8685 12.6562 27.8371 12.6562C22.8301 12.6562 18.6434 16.1574 17.5844 20.8444C16.9401 20.6291 16.2652 20.5194 15.5858 20.5195C13.4346 20.5195 11.5362 21.5967 10.3976 23.2403C9.74792 23.0725 9.07959 22.9877 8.40859 22.9879C4.04076 22.9879 0.5 26.5287 0.5 30.8965C0.5 35.2642 4.04076 38.8054 8.40859 38.8054H17.1284C17.1468 36.1171 19.3305 33.9437 22.0227 33.9437C22.5198 33.9432 23.014 34.0185 23.4883 34.167C23.4862 34.0929 23.4828 34.0187 23.4828 33.9437C23.4828 30.3074 26.4305 27.3596 30.0667 27.3596C33.202 27.3596 35.8239 29.5521 36.487 32.4869C36.8904 32.352 37.3129 32.2833 37.7382 32.2835C39.0852 32.2835 40.2743 32.9579 40.9871 33.9874C41.3939 33.8822 41.8124 33.829 42.2325 33.8291C44.0354 33.8291 45.6129 34.7928 46.4789 36.2326C47.7348 34.8457 48.4999 33.0063 48.4999 30.9882C48.4999 26.6704 45 23.1709 40.6826 23.1709C39.889 23.1702 39.0998 23.2904 38.3423 23.5275C38.3462 23.409 38.3513 23.2904 38.3513 23.1709C38.3513 21.4054 37.9162 19.7416 37.1471 18.2806" fill="#BEEAFC"/>
<path d="M8.88519 23.0025C8.7265 22.9928 8.56755 22.9879 8.40856 22.9878C4.04075 22.9877 0.5 26.5285 0.5 30.8964C0.5 35.264 4.04075 38.8052 8.40856 38.8052H17.1283C17.1328 37.991 17.3411 37.191 17.7343 36.478C13.4229 33.16 10.2463 28.4414 8.88519 23.0025Z" fill="#AEE4FF"/>
<path d="M8.15132 17.0295C8.15132 14.4643 8.54582 11.9915 9.27623 9.66748C8.48854 9.81289 7.80941 10.2681 7.37001 10.9023C7.06319 10.8231 6.74759 10.783 6.43073 10.783C4.36823 10.783 2.69629 12.455 2.69629 14.5176C2.69629 16.5799 4.36832 18.2523 6.43073 18.2523H8.18179C8.16164 17.845 8.15148 17.4373 8.15132 17.0295Z" fill="#83D4ED"/>
<path d="M42.2326 33.6199C41.8025 33.6199 41.385 33.675 40.9872 33.7782C40.2743 32.7486 39.0853 32.0743 37.7383 32.0743C37.3007 32.0743 36.8806 32.1463 36.4871 32.2777C35.8239 29.3428 33.2021 27.1504 30.0668 27.1504C26.4306 27.1504 23.4829 30.0982 23.4829 33.7345C23.4829 33.8095 23.4862 33.8837 23.4884 33.9578C23.0141 33.8093 22.5199 33.734 22.0228 33.7345C19.3195 33.7345 17.1279 35.9257 17.1279 38.6297C17.1279 41.333 19.3196 43.5245 22.0228 43.5245H42.2328C44.9679 43.5245 47.1853 41.3072 47.1853 38.5722C47.1851 35.837 44.9678 33.6199 42.2326 33.6199Z" fill="#E4F2F9"/>
<path d="M27.2431 32.3573C27.2431 30.5904 27.6181 28.9112 28.2916 27.394C25.5181 28.1691 23.4827 30.7131 23.4827 33.7341C23.4827 33.8091 23.486 33.8833 23.4883 33.9574C23.0139 33.8089 22.5197 33.7336 22.0227 33.7341C19.3194 33.7341 17.1278 35.9253 17.1278 38.6293C17.1278 41.3326 19.3195 43.524 22.0227 43.524H34.4612C30.2057 41.6065 27.2431 37.3279 27.2431 32.3573Z" fill="#D7EDF9"/>
</g>
<defs>
<clipPath id="clip0_13522_510">
<rect width="48" height="48" fill="white" transform="translate(0.5 0.714355)"/>
</clipPath>
</defs>
</svg>
