<svg width="48" height="47" viewBox="0 0 48 47" fill="none" xmlns="http://www.w3.org/2000/svg">
<path d="M24 46.9644C36.8406 46.9644 47.25 36.555 47.25 23.7144C47.25 10.8737 36.8406 0.464355 24 0.464355C11.1594 0.464355 0.75 10.8737 0.75 23.7144C0.75 36.555 11.1594 46.9644 24 46.9644Z" fill="#E6ECFF"/>
<path d="M42.6577 37.5704C40.4893 34.6674 37.6737 32.3101 34.4347 30.686C31.1956 29.0618 27.6223 28.2155 23.9989 28.2144C20.3754 28.2132 16.8016 29.0572 13.5615 30.6793C10.3214 32.3013 7.50424 34.6568 5.33398 37.5584C7.49314 40.4748 10.3056 42.8447 13.5459 44.4781C16.7862 46.1115 20.3641 46.9629 23.9928 46.9641C27.6215 46.9652 31.2 46.1161 34.4414 44.4848C37.6827 42.8535 40.4967 40.4854 42.6577 37.5704Z" fill="#4294FF"/>
<path d="M24 25.2144C28.9706 25.2144 33 21.1849 33 16.2144C33 11.2438 28.9706 7.21436 24 7.21436C19.0294 7.21436 15 11.2438 15 16.2144C15 21.1849 19.0294 25.2144 24 25.2144Z" fill="#4294FF"/>
</svg>
