<svg width="48" height="30" viewBox="0 0 48 30" fill="none" xmlns="http://www.w3.org/2000/svg">
<path d="M39.2116 13.8093L37.9923 3.9044L35.7074 4.18564L35.7083 4.18405L31.2787 1.69115C30.8062 1.42528 30.2639 1.30959 29.724 1.35947L22.7297 2.00634C22.306 2.04552 21.8977 2.18548 21.5391 2.41453C21.1804 2.64358 20.8817 2.95509 20.6679 3.32305L15.7382 11.8081C15.3741 12.4347 15.6599 13.2382 16.3378 13.4942L16.5394 13.5704C16.9274 13.7169 17.3261 13.8017 17.7246 13.8349L17.1 14.3789L15.8503 15.4678L12.296 18.4996C11.6632 19.0508 11.5975 20.0098 12.1487 20.6425L12.5092 21.0555C13.2171 21.8672 14.449 21.9515 15.2622 21.2435L16.6206 22.8016C17.0623 23.3088 17.7093 23.5331 18.331 23.4566C18.7175 23.4092 19.0808 23.2464 19.3735 22.9896L20.7304 24.5478C21.1737 25.0563 21.8206 25.2791 22.4423 25.2026C22.8287 25.1556 23.192 24.9934 23.485 24.7371L24.2224 25.3744C24.9304 26.1875 26.1638 26.2716 26.977 25.5636L27.9794 24.689L36.4071 18.1254L36.4162 18.117L39.7414 18.1137L39.2116 13.8093Z" fill="#F29F5C"/>
<path d="M35.5997 15.5653L35.5906 15.5736L27.1629 22.1372L26.1604 23.0118C25.3473 23.7198 24.1138 23.6357 23.4058 22.8226L22.6684 22.1853C22.3755 22.4417 22.0122 22.6039 21.6257 22.6509C21.0041 22.7274 20.3572 22.5045 19.9139 21.996L18.5569 20.4378C18.2641 20.6945 17.9009 20.8573 17.5144 20.9049C16.8928 20.9814 16.2457 20.7571 15.8041 20.2498L14.4456 18.6917C13.7494 19.2979 12.7471 19.3215 12.0287 18.8068C11.6602 19.3623 11.6897 20.1153 12.149 20.6426L12.5095 21.0555C13.2173 21.8672 14.4493 21.9515 15.2625 21.2435L16.6209 22.8016C17.0626 23.3088 17.7096 23.5331 18.3313 23.4566C18.7178 23.4091 19.081 23.2464 19.3738 22.9896L20.7307 24.5479C21.174 25.0564 21.8209 25.2792 22.4426 25.2027C22.829 25.1557 23.1923 24.9935 23.4853 24.7372L24.2227 25.3745C24.9307 26.1876 26.1641 26.2717 26.9772 25.5637L27.9797 24.6891L36.4074 18.1255L36.4165 18.1171L39.7416 18.1138L39.3738 15.1255L35.5997 15.5653Z" fill="#D37D42"/>
<path d="M37.1343 19.8497L32.6189 15.9563L31.3632 14.8744L30.4647 14.1006L26.6015 10.7706L27.0477 6.97285C27.1986 5.68839 26.39 4.48586 25.1435 4.14096L16.7225 1.81081C16.2902 1.69121 15.83 1.72435 15.4193 1.90465C15.0087 2.08495 14.6728 2.40136 14.4683 2.80052L13.4093 4.8677L8.86355 4.55917L7.69918 14.4708L7.19312 18.7781L11.6179 19.0724L11.6271 19.0807L20.871 27.0488L21.8783 27.9178C22.6954 28.6213 23.9283 28.5304 24.6318 27.7134L25.9799 26.1491C26.2743 26.4038 26.6385 26.564 27.0252 26.6089C27.6472 26.682 28.293 26.4555 28.7334 25.9446L30.0817 24.3789C30.3759 24.634 30.7401 24.7948 31.1268 24.8401C31.7489 24.9132 32.3947 24.6853 32.8335 24.1756L34.1833 22.61C35.0003 23.3135 36.2318 23.2224 36.9351 22.4068L37.2934 21.9917C37.8411 21.356 37.77 20.3973 37.1343 19.8497Z" fill="#F9C295"/>
<path d="M37.1344 19.8495L35.759 18.6636C36.206 19.2564 36.1968 20.0996 35.6923 20.6852L35.312 21.1257C34.5654 21.9915 33.2581 22.0883 32.3907 21.3414L30.9579 23.0034C30.492 23.5445 29.8064 23.7864 29.146 23.7088C28.7355 23.6607 28.3489 23.49 28.0366 23.2192L26.6052 24.8814C26.1377 25.4237 25.4523 25.6641 24.7919 25.5865C24.3814 25.5389 23.9948 25.3688 23.6823 25.0984L22.2511 26.7591C21.9918 27.0605 21.6508 27.2804 21.2692 27.3921L21.8784 27.9177C22.6955 28.6212 23.9284 28.5303 24.6319 27.7133L25.98 26.1489C26.2744 26.4037 26.6386 26.5639 27.0253 26.6088C27.6474 26.6818 28.2931 26.4554 28.7335 25.9445L30.0819 24.3788C30.376 24.6339 30.7402 24.7946 31.127 24.84C31.749 24.9131 32.3949 24.6852 32.8337 24.1755L34.1834 22.6099C35.0004 23.3134 36.2319 23.2223 36.9353 22.4066L37.2936 21.9916C37.8412 21.3558 37.7701 20.3971 37.1344 19.8495Z" fill="#E59F6A"/>
<path d="M11.8486 19.0624L11.313 19.7697C10.7298 20.5398 10.8813 21.637 11.6514 22.2203C12.4216 22.8035 13.5187 22.652 14.102 21.8819L14.6376 21.1746C15.2208 20.4044 15.0693 19.3073 14.2992 18.724C13.529 18.1408 12.4318 18.2923 11.8486 19.0624Z" fill="#F29F5C"/>
<path d="M15.1107 20.5497L14.102 21.8816C13.5188 22.6518 13.6703 23.7489 14.4405 24.3323C15.2106 24.9155 16.3078 24.764 16.8911 23.9938L17.8998 22.6619C18.483 21.8918 18.3315 20.7946 17.5613 20.2113C16.7911 19.6281 15.6939 19.7796 15.1107 20.5497Z" fill="#F29F5C"/>
<path d="M18.2656 22.1786L16.891 23.9938C16.3078 24.764 16.4593 25.8611 17.2294 26.4444C17.9996 27.0277 19.0967 26.8762 19.68 26.106L21.0547 24.2908C21.6379 23.5207 21.4864 22.4235 20.7162 21.8402C19.9461 21.257 18.8489 21.4085 18.2656 22.1786ZM21.1345 24.1855L19.68 26.106C19.0968 26.8762 19.2483 27.9733 20.0185 28.5566C20.7886 29.1398 21.8858 28.9883 22.4691 28.2182L23.9235 26.2977C24.5067 25.5276 24.3552 24.4304 23.5851 23.8471C22.8148 23.2639 21.7177 23.4154 21.1345 24.1855ZM35.7083 4.18405L31.2786 1.69115C30.8061 1.42528 30.2639 1.30959 29.724 1.35947L22.7297 2.00634C22.3059 2.04552 21.8977 2.18548 21.539 2.41453C21.1803 2.64358 20.8817 2.95509 20.6679 3.32305L15.7381 11.8081C15.3741 12.4348 15.6599 13.2382 16.3378 13.4942L16.5394 13.5704C18.3464 14.2529 20.3872 13.6721 21.564 12.1405L23.4528 9.68237C23.4528 9.68237 27.993 14.9392 32.9917 8.80019" fill="#F29F5C"/>
<path d="M44.98 0.703613L47.2969 19.524L41.8792 20.191C40.8553 20.317 39.9231 19.5892 39.797 18.5652L37.9367 3.45265C37.8107 2.42871 38.5384 1.49655 39.5624 1.37046L44.98 0.703613Z" fill="#5C9CEE"/>
<path d="M41.7886 18.0674C40.735 18.1971 39.77 17.502 39.5413 16.4878L39.797 18.5656C39.923 19.5895 40.8553 20.3173 41.8792 20.1913L47.2968 19.5244L47.0379 17.4212L41.7886 18.0674Z" fill="#3580D3"/>
<path d="M3.02009 0.703613L0.703247 19.5241L6.12087 20.1911C7.14481 20.3171 8.07697 19.5893 8.20306 18.5653L10.0634 3.45274C10.1894 2.4288 9.46165 1.49664 8.43772 1.37055L3.02009 0.703613Z" fill="#ED5575"/>
<path d="M6.24837 18.0206L0.968372 17.3706L0.703247 19.5244L6.12087 20.1913C7.14481 20.3173 8.07697 19.5896 8.20306 18.5656L8.39956 16.9692C7.96709 17.6911 7.1374 18.1301 6.24837 18.0206Z" fill="#CC3A60"/>
<path d="M43.5001 17.7838C44.2507 17.7838 44.8592 17.1753 44.8592 16.4246C44.8592 15.674 44.2507 15.0654 43.5001 15.0654C42.7494 15.0654 42.1409 15.674 42.1409 16.4246C42.1409 17.1753 42.7494 17.7838 43.5001 17.7838Z" fill="#EBEEF2"/>
<path d="M4.42413 17.7838C5.17479 17.7838 5.78332 17.1753 5.78332 16.4246C5.78332 15.674 5.17479 15.0654 4.42413 15.0654C3.67347 15.0654 3.06494 15.674 3.06494 16.4246C3.06494 17.1753 3.67347 17.7838 4.42413 17.7838Z" fill="#EBEEF2"/>
<path d="M24.0095 23.2867C23.4372 22.8532 22.7342 22.7099 22.0785 22.8322C21.9775 22.2133 21.6416 21.6572 21.1408 21.2798C20.6185 20.8842 19.9737 20.7159 19.3246 20.8054C19.1657 20.8273 19.0092 20.8646 18.8575 20.9168C18.7108 20.4119 18.405 19.9679 17.9856 19.6509C17.2683 19.1076 16.3462 19.0207 15.5688 19.3404C15.4141 18.8745 15.1233 18.4662 14.7236 18.1633C14.2014 17.7678 13.5562 17.5995 12.9075 17.689C12.3813 17.7616 11.9037 17.9969 11.5309 18.3617L8.95733 18.1906L10.5348 5.37664L13.3613 5.56874C13.4985 5.57803 13.6354 5.54691 13.7551 5.4792C13.8747 5.4115 13.9719 5.3102 14.0346 5.18783L15.0939 3.12093C15.3623 2.59772 15.9682 2.33175 16.5347 2.48859L18.1079 2.92359C18.2876 2.97317 18.4797 2.94938 18.6419 2.85745C18.8041 2.76552 18.9232 2.61296 18.973 2.43328C18.9976 2.34428 19.0044 2.25131 18.9931 2.15966C18.9818 2.06802 18.9525 1.9795 18.907 1.89917C18.8615 1.81883 18.8006 1.74825 18.7278 1.69146C18.655 1.63466 18.5717 1.59277 18.4827 1.56816L16.9098 1.13326C15.7042 0.799507 14.4142 1.36538 13.8428 2.47922L12.9947 4.13418L10.707 3.97874L10.7612 3.5385C10.9344 2.13141 9.93064 0.845819 8.52355 0.67257L3.10595 0.00600973C2.92174 -0.0150318 2.73667 0.0375394 2.59103 0.15228C2.44539 0.267021 2.35096 0.434644 2.3283 0.618665C2.30565 0.802685 2.35659 0.988207 2.47005 1.13485C2.58351 1.28149 2.75029 1.37739 2.93411 1.40166L8.35171 2.0686C8.50364 2.08686 8.65044 2.13508 8.78361 2.21048C8.91677 2.28587 9.03366 2.38693 9.12749 2.50781C9.22199 2.62818 9.29168 2.7661 9.33252 2.91359C9.37336 3.06107 9.38455 3.21519 9.36543 3.36703L7.50506 18.4795C7.42659 19.1169 6.84403 19.5713 6.20663 19.4933L0.789023 18.8263C0.604811 18.8053 0.419743 18.8579 0.274102 18.9726C0.12846 19.0874 0.034034 19.255 0.011376 19.439C-0.011282 19.623 0.0396621 19.8085 0.15312 19.9552C0.266578 20.1018 0.433366 20.1977 0.61718 20.222L6.03478 20.8889C6.14091 20.902 6.24638 20.9083 6.35072 20.9083C7.3004 20.9083 8.15718 20.3807 8.60109 19.5764L10.5264 19.7044C10.2947 20.1525 10.2079 20.6615 10.278 21.1611C10.3676 21.8099 10.7045 22.3852 11.2267 22.7806C11.6573 23.1068 12.1713 23.2784 12.7023 23.2784C12.8152 23.2784 12.9289 23.2706 13.0429 23.255C13.0502 23.2539 13.0573 23.2525 13.0645 23.2514C13.0654 23.2587 13.066 23.2659 13.0669 23.2733C13.1566 23.9221 13.4935 24.4974 14.0157 24.8928C14.4407 25.2154 14.9598 25.3897 15.4934 25.3892C15.6143 25.3892 15.735 25.3793 15.8544 25.3617C15.9354 25.9925 16.2589 26.5916 16.8047 27.005C17.2298 27.3276 17.7488 27.502 18.2824 27.5014C18.403 27.5014 18.5233 27.4916 18.6423 27.4741C18.6434 27.4819 18.6439 27.4897 18.645 27.4975C18.7346 28.1464 19.0715 28.7216 19.5938 29.1171C20.0244 29.4431 20.5383 29.6149 21.0692 29.6149C21.1832 29.6148 21.297 29.607 21.4098 29.5914C22.0588 29.5018 22.6339 29.1649 23.0293 28.6427L24.4838 26.7222C25.3003 25.6443 25.0875 24.103 24.0095 23.2867ZM12.8506 21.862C12.7145 21.8812 12.5759 21.8732 12.443 21.8385C12.31 21.8037 12.1852 21.7429 12.0759 21.6596C11.9661 21.577 11.8738 21.4733 11.8044 21.3548C11.7349 21.2362 11.6896 21.105 11.6712 20.9688C11.652 20.8327 11.66 20.6941 11.6948 20.5611C11.7295 20.4282 11.7903 20.3034 11.8736 20.1941L12.4092 19.4868C12.4919 19.377 12.5955 19.2847 12.7141 19.2153C12.8327 19.1458 12.9638 19.1005 13.1 19.0821C13.2361 19.063 13.3747 19.071 13.5077 19.1058C13.6406 19.1405 13.7654 19.2013 13.8748 19.2845C13.9846 19.3672 14.0769 19.4708 14.1463 19.5894C14.2158 19.708 14.2611 19.8391 14.2795 19.9753C14.2987 20.1114 14.2907 20.25 14.2559 20.3829C14.2212 20.5159 14.1604 20.6407 14.0772 20.75L13.5415 21.4572C13.4588 21.567 13.3552 21.6593 13.2366 21.7288C13.118 21.7983 12.9868 21.8436 12.8506 21.862ZM14.8649 23.7718C14.7551 23.6891 14.6628 23.5855 14.5933 23.4669C14.5239 23.3484 14.4786 23.2172 14.4602 23.081C14.441 22.9449 14.449 22.8063 14.4837 22.6733C14.5185 22.5403 14.5793 22.4156 14.6626 22.3062L15.1982 21.5991L15.1982 21.5989L15.6712 20.9743C15.7689 20.8454 15.8952 20.7409 16.0401 20.669C16.185 20.5971 16.3447 20.5599 16.5064 20.5602C16.734 20.56 16.9554 20.6344 17.1367 20.772C17.5966 21.1203 17.6874 21.7777 17.3391 22.2376L16.3305 23.5695C15.9822 24.0294 15.3247 24.1201 14.8649 23.7718ZM17.6539 25.884C17.5441 25.8013 17.4518 25.6977 17.3824 25.5791C17.3129 25.4605 17.2676 25.3293 17.2492 25.1931C17.23 25.057 17.238 24.9186 17.2727 24.7856C17.3074 24.6527 17.3681 24.528 17.4513 24.4187L17.4515 24.4184L18.4602 23.0864L18.8262 22.6031C18.9089 22.4933 19.0125 22.401 19.1311 22.3316C19.2497 22.2621 19.3809 22.2168 19.5171 22.1984C19.6532 22.1793 19.7918 22.1873 19.9247 22.2221C20.0577 22.2568 20.1825 22.3176 20.2919 22.4008C20.7515 22.7489 20.8424 23.406 20.4945 23.8659L19.1195 25.6815L19.1193 25.6818C18.771 26.1414 18.1139 26.2323 17.6539 25.884ZM23.3629 25.8733L21.9085 27.7938C21.8258 27.9036 21.7222 27.9959 21.6036 28.0653C21.485 28.1348 21.3538 28.1801 21.2176 28.1985C20.9406 28.2366 20.6656 28.1648 20.4429 27.9962C20.2201 27.8275 20.0764 27.5821 20.0382 27.3053C20.019 27.1692 20.027 27.0307 20.0618 26.8977C20.0965 26.7647 20.1573 26.6399 20.2406 26.5306L21.6153 24.7154L21.6161 24.7145L21.6951 24.6101C21.7778 24.5003 21.8814 24.408 22 24.3386C22.1186 24.2691 22.2498 24.2238 22.386 24.2054C22.5221 24.1863 22.6607 24.1944 22.7937 24.2291C22.9266 24.2638 23.0514 24.3246 23.1608 24.4078C23.6203 24.7559 23.7112 25.4135 23.3629 25.8733Z" fill="black"/>
<path d="M47.9946 19.4383C47.9718 19.2532 47.8764 19.0848 47.7295 18.9701C47.5825 18.8553 47.396 18.8036 47.2109 18.8264L41.7934 19.4933C41.155 19.5718 40.5734 19.1169 40.495 18.4795L40.4395 18.0285L40.4266 17.924L38.6347 3.36707C38.6156 3.21523 38.6268 3.06111 38.6676 2.91363C38.7084 2.76615 38.7781 2.62823 38.8726 2.50785C38.9665 2.38697 39.0833 2.28591 39.2165 2.21052C39.3497 2.13512 39.4965 2.0869 39.6484 2.06864L45.066 1.4017C45.1583 1.39116 45.2475 1.36246 45.3286 1.31724C45.4097 1.27202 45.4811 1.21119 45.5385 1.13825C45.596 1.06531 45.6384 0.981713 45.6634 0.892282C45.6884 0.80285 45.6954 0.709356 45.6841 0.617198C45.6727 0.525039 45.6432 0.43604 45.5973 0.355339C45.5514 0.274639 45.4899 0.203834 45.4165 0.147014C45.343 0.0901934 45.2591 0.0484823 45.1694 0.024288C45.0798 9.36115e-05 44.9862 -0.00610477 44.8942 0.00605117L39.4766 0.672986C38.1525 0.836016 37.186 1.98398 37.2208 3.29132L35.8545 3.45951L31.624 1.07873C31.0275 0.741828 30.3421 0.595467 29.66 0.659299L29.6558 0.659861L28.3824 0.777611C28.2905 0.786107 28.2011 0.812633 28.1194 0.855674C28.0377 0.898714 27.9653 0.957426 27.9063 1.02846C27.8473 1.09949 27.8029 1.18144 27.7755 1.26965C27.7482 1.35785 27.7386 1.45057 27.7471 1.54251C27.7828 1.92914 28.1247 2.2131 28.512 2.17786L29.7889 2.05973C30.1866 2.02243 30.5862 2.10768 30.934 2.30404L35.3203 4.77247C35.4598 4.86465 35.6275 4.9041 35.7935 4.88375L37.3803 4.68847L38.5442 14.1425L38.9467 17.4119L36.4157 17.414C36.247 17.414 36.084 17.4749 35.9566 17.585L35.7608 17.7375L29.4066 12.261C30.8587 11.8435 32.2429 10.8338 33.5371 9.24442C33.652 9.09952 33.7052 8.9152 33.6852 8.73136C33.6652 8.54752 33.5736 8.37896 33.4302 8.2622C33.2868 8.14543 33.1032 8.08984 32.9191 8.10748C32.735 8.12512 32.5653 8.21455 32.4466 8.35642C31.0001 10.133 29.4791 11.0474 27.9258 11.0742C25.663 11.1168 24.0004 9.24048 23.9851 9.22295C23.9167 9.14412 23.8317 9.08142 23.7362 9.03936C23.6407 8.99729 23.5371 8.97691 23.4328 8.97967C23.3285 8.98266 23.2261 9.00884 23.1331 9.0563C23.0402 9.10376 22.9589 9.17132 22.8953 9.25408L21.0066 11.7122C20.0114 13.0074 18.3161 13.4901 16.7879 12.9127L16.5863 12.8365C16.4092 12.7696 16.337 12.6312 16.3098 12.5546C16.2826 12.478 16.2511 12.3251 16.3462 12.1614L21.2759 3.67644C21.4336 3.40561 21.6537 3.17632 21.9178 3.00764C22.1819 2.83896 22.4825 2.73575 22.7946 2.7066L25.7133 2.4367C25.8056 2.42864 25.8953 2.40242 25.9775 2.35955C26.0596 2.31668 26.1324 2.25801 26.1918 2.18689C26.2512 2.11578 26.2959 2.03364 26.3235 1.94519C26.351 1.85673 26.3608 1.76371 26.3522 1.67146C26.3437 1.57921 26.317 1.48956 26.2737 1.40766C26.2304 1.32576 26.1714 1.25322 26.1 1.19421C26.0285 1.1352 25.9462 1.09089 25.8576 1.06381C25.769 1.03674 25.6759 1.02744 25.5837 1.03645L22.665 1.30636C22.1297 1.35637 21.6141 1.53342 21.161 1.82278C20.7079 2.11213 20.3304 2.50545 20.0599 2.97004L15.1302 11.455C14.9931 11.6905 14.9091 11.9531 14.8839 12.2244C14.8588 12.4957 14.8932 12.7693 14.9847 13.0259C15.0758 13.2827 15.2219 13.5165 15.4126 13.711C15.6034 13.9055 15.8343 14.0561 16.0893 14.1521L16.291 14.2283C16.8699 14.448 17.484 14.5609 18.1032 14.5614C19.6457 14.5613 21.1335 13.855 22.1216 12.5691L23.5308 10.7351C24.2859 11.3859 25.6947 12.3499 27.493 12.4683L36.6753 20.3823C36.8404 20.5245 36.9403 20.7225 36.9564 20.9398C36.9725 21.1571 36.9031 21.3677 36.7611 21.5327L36.4033 21.9477C35.9537 22.4684 35.1635 22.5262 34.6419 22.0769C34.6131 22.0524 34.5823 22.0302 34.5499 22.0107L32.1662 19.9553C32.0246 19.8367 31.8419 19.7785 31.6578 19.7935C31.4736 19.8084 31.3027 19.8953 31.1821 20.0352C31.0614 20.1752 31.0007 20.357 31.013 20.5413C31.0254 20.7257 31.1098 20.8978 31.248 21.0204L33.185 22.6906L32.3014 23.7161C32.1681 23.871 31.9987 23.9908 31.8082 24.065C31.6178 24.1392 31.412 24.1655 31.209 24.1416C30.9617 24.1124 30.7288 24.0095 30.5407 23.8463C30.5373 23.8434 30.5337 23.841 30.5303 23.8381L28.3155 21.9285C28.1738 21.8098 27.9912 21.7517 27.807 21.7666C27.6229 21.7816 27.452 21.8684 27.3313 22.0084C27.2107 22.1483 27.1499 22.3301 27.1623 22.5145C27.1746 22.6988 27.259 22.8709 27.3972 22.9936L29.0897 24.453L28.2009 25.4852C28.0674 25.6402 27.8978 25.7601 27.7071 25.8343C27.5165 25.9085 27.3105 25.9347 27.1073 25.9108C27.0156 25.9 26.9227 25.9073 26.8338 25.9324C26.745 25.9576 26.6619 25.9999 26.5894 26.0572C26.517 26.1144 26.4565 26.1853 26.4114 26.266C26.3664 26.3466 26.3377 26.4353 26.3269 26.527C26.3052 26.7122 26.3579 26.8984 26.4734 27.0448C26.589 27.1911 26.758 27.2856 26.9432 27.3074C27.3748 27.3583 27.8124 27.3025 28.2175 27.1449C28.6225 26.9872 28.9827 26.7325 29.2663 26.4031L30.2165 25.2996C30.4776 25.424 30.7574 25.5047 31.0447 25.5383C31.4762 25.5893 31.9136 25.5335 32.3184 25.3759C32.7233 25.2182 33.0832 24.9636 33.3666 24.6343L34.3184 23.5296C35.3711 24.0289 36.6712 23.7894 37.4681 22.8662L37.8264 22.4506C38.0175 22.23 38.163 21.9736 38.2544 21.6964C38.3458 21.4191 38.3813 21.1265 38.3589 20.8354C38.338 20.5443 38.2597 20.2602 38.1283 19.9996C37.9969 19.7389 37.8151 19.507 37.5935 19.3171L37.0164 18.8197L39.1258 18.8179C39.3564 20.0329 40.4256 20.9085 41.6491 20.9085C41.7534 20.9085 41.859 20.9021 41.965 20.8891L47.3826 20.2221C47.5677 20.1993 47.7362 20.1039 47.851 19.9569C47.9657 19.8099 48.0174 19.6234 47.9946 19.4383Z" fill="black"/>
<path d="M43.5001 14.3623C42.3629 14.3623 41.4377 15.2874 41.4377 16.4246C41.4377 17.5618 42.3629 18.487 43.5001 18.487C44.6373 18.487 45.5624 17.5618 45.5624 16.4246C45.5624 15.2874 44.6373 14.3623 43.5001 14.3623ZM43.5001 17.0808C43.1383 17.0808 42.8439 16.7864 42.8439 16.4246C42.8439 16.0628 43.1383 15.7685 43.5001 15.7685C43.8619 15.7685 44.1562 16.0628 44.1562 16.4246C44.1562 16.7864 43.8619 17.0808 43.5001 17.0808ZM6.48643 16.4246C6.48643 15.2874 5.5613 14.3623 4.42412 14.3623C3.28694 14.3623 2.36182 15.2874 2.36182 16.4246C2.36182 17.5618 3.28694 18.487 4.42412 18.487C5.5613 18.487 6.48643 17.5618 6.48643 16.4246ZM3.76806 16.4246C3.76806 16.0628 4.06234 15.7685 4.42412 15.7685C4.7859 15.7685 5.08018 16.0628 5.08018 16.4246C5.08018 16.7864 4.7859 17.0808 4.42412 17.0808C4.06234 17.0808 3.76806 16.7864 3.76806 16.4246Z" fill="black"/>
</svg>
